<?xml version="1.0" standalone="no"?>
<!DOCTYPE svg PUBLIC "-//W3C//DTD SVG 1.1//EN" "http://www.w3.org/Graphics/SVG/1.1/DTD/svg11.dtd">

<svg viewBox="0 0 80 80" id="icodi" width="100%" height="100%" 
  xmlns="http://www.w3.org/2000/svg"
  xmlns:xlink="http://www.w3.org/1999/xlink">


<rect x="0" y="0" width="80" height="80" fill="#ffffff"/>
<defs>
<clipPath id="icodi-4005632">
<rect width="80" height="80"/>
</clipPath>
</defs>
<g clip-path="url(#icodi-4005632)">
<rect x="0" y="0" width="10" height="10" fill="#0a336a" style="stroke:#0a336a; stroke-width:1.6"/>
<rect x="70" y="0" width="10" height="10" fill="#0a336a" style="stroke:#0a336a; stroke-width:1.6"/>
<rect x="0" y="70" width="10" height="10" fill="#0a336a" style="stroke:#0a336a; stroke-width:1.6"/>
<rect x="70" y="70" width="10" height="10" fill="#0a336a" style="stroke:#0a336a; stroke-width:1.6"/>
<rect x="20" y="0" width="10" height="10" fill="#0a336a" style="stroke:#0a336a; stroke-width:1.6"/>
<rect x="50" y="0" width="10" height="10" fill="#0a336a" style="stroke:#0a336a; stroke-width:1.6"/>
<rect x="20" y="70" width="10" height="10" fill="#0a336a" style="stroke:#0a336a; stroke-width:1.6"/>
<rect x="50" y="70" width="10" height="10" fill="#0a336a" style="stroke:#0a336a; stroke-width:1.6"/>
<rect x="30" y="0" width="10" height="10" fill="#0a336a" style="stroke:#0a336a; stroke-width:1.6"/>
<rect x="40" y="0" width="10" height="10" fill="#0a336a" style="stroke:#0a336a; stroke-width:1.6"/>
<rect x="30" y="70" width="10" height="10" fill="#0a336a" style="stroke:#0a336a; stroke-width:1.6"/>
<rect x="40" y="70" width="10" height="10" fill="#0a336a" style="stroke:#0a336a; stroke-width:1.6"/>
<rect x="0" y="20" width="10" height="10" fill="#0a336a" style="stroke:#0a336a; stroke-width:1.6"/>
<rect x="70" y="20" width="10" height="10" fill="#0a336a" style="stroke:#0a336a; stroke-width:1.6"/>
<rect x="0" y="50" width="10" height="10" fill="#0a336a" style="stroke:#0a336a; stroke-width:1.6"/>
<rect x="70" y="50" width="10" height="10" fill="#0a336a" style="stroke:#0a336a; stroke-width:1.6"/>
<rect x="10" y="20" width="10" height="10" fill="#0a336a" style="stroke:#0a336a; stroke-width:1.6"/>
<rect x="60" y="20" width="10" height="10" fill="#0a336a" style="stroke:#0a336a; stroke-width:1.6"/>
<rect x="10" y="50" width="10" height="10" fill="#0a336a" style="stroke:#0a336a; stroke-width:1.6"/>
<rect x="60" y="50" width="10" height="10" fill="#0a336a" style="stroke:#0a336a; stroke-width:1.6"/>
<rect x="0" y="30" width="10" height="10" fill="#0a336a" style="stroke:#0a336a; stroke-width:1.6"/>
<rect x="70" y="30" width="10" height="10" fill="#0a336a" style="stroke:#0a336a; stroke-width:1.6"/>
<rect x="0" y="40" width="10" height="10" fill="#0a336a" style="stroke:#0a336a; stroke-width:1.6"/>
<rect x="70" y="40" width="10" height="10" fill="#0a336a" style="stroke:#0a336a; stroke-width:1.6"/>
<rect x="10" y="30" width="10" height="10" fill="#0a336a" style="stroke:#0a336a; stroke-width:1.6"/>
<rect x="60" y="30" width="10" height="10" fill="#0a336a" style="stroke:#0a336a; stroke-width:1.6"/>
<rect x="10" y="40" width="10" height="10" fill="#0a336a" style="stroke:#0a336a; stroke-width:1.6"/>
<rect x="60" y="40" width="10" height="10" fill="#0a336a" style="stroke:#0a336a; stroke-width:1.6"/>
<rect x="30" y="30" width="10" height="10" fill="#0a336a" style="stroke:#0a336a; stroke-width:1.6"/>
<rect x="40" y="30" width="10" height="10" fill="#0a336a" style="stroke:#0a336a; stroke-width:1.6"/>
<rect x="30" y="40" width="10" height="10" fill="#0a336a" style="stroke:#0a336a; stroke-width:1.6"/>
<rect x="40" y="40" width="10" height="10" fill="#0a336a" style="stroke:#0a336a; stroke-width:1.6"/>
</g>

</svg>